<svg width="53" height="38" viewBox="0 0 53 38" fill="none" xmlns="http://www.w3.org/2000/svg">
<path fill-rule="evenodd" clip-rule="evenodd" d="M36.75 22.6753L49.25 29.411V9.20377L36.75 15.9395V5.3074C36.75 4.66307 36.1904 4.14074 35.5 4.14074H5.5C4.80964 4.14074 4.25 4.66307 4.25 5.3074V33.3074C4.25 33.9517 4.80964 34.4741 5.5 34.4741H35.5C36.1904 34.4741 36.75 33.9517 36.75 33.3074V22.6753ZM40.5 5.3074C40.5 2.73007 38.2614 0.640736 35.5 0.640736H5.5C2.73858 0.640736 0.5 2.73007 0.5 5.3074V33.3074C0.5 35.8847 2.73858 37.9741 5.5 37.9741H35.5C38.2614 37.9741 40.5 35.8847 40.5 33.3074V28.7375L47.375 32.4421C49.875 33.7893 53 32.1053 53 29.411V9.20377C53 6.50947 49.875 4.82553 47.375 6.17268L40.5 9.87735V5.3074Z" fill="#F5F5F5"/>
</svg>
