<svg width="53" height="51" viewBox="0 0 53 51" fill="none" xmlns="http://www.w3.org/2000/svg">
<path fill-rule="evenodd" clip-rule="evenodd" d="M15.9118 20.2855C15.9118 17.4926 18.2524 15.2284 21.1398 15.2284H31.5956C34.4829 15.2284 36.8235 17.4926 36.8235 20.2855V30.3998C36.8235 33.1927 34.4829 35.4569 31.5956 35.4569H21.1398C18.2524 35.4569 15.9118 33.1927 15.9118 30.3998V20.2855ZM19.8328 20.2855C19.8328 19.5873 20.4179 19.0213 21.1398 19.0213H31.5956C32.3174 19.0213 32.9026 19.5873 32.9026 20.2855V30.3998C32.9026 31.098 32.3174 31.664 31.5956 31.664H21.1398C20.4179 31.664 19.8328 31.098 19.8328 30.3998V20.2855Z" fill="#FF1C20"/>
<path fill-rule="evenodd" clip-rule="evenodd" d="M15.2583 0.0571289C16.3411 0.0571289 17.2188 0.906183 17.2188 1.95354V5.11423H24.4072V1.95354C24.4072 0.906183 25.2849 0.0571289 26.3677 0.0571289C27.4504 0.0571289 28.3282 0.906183 28.3282 1.95354V5.11423H35.5166V1.95354C35.5166 0.906183 36.3943 0.0571289 37.477 0.0571289C38.5598 0.0571289 39.4375 0.906183 39.4375 1.95354V5.11423H42.0515C44.9388 5.11423 47.2794 7.37838 47.2794 10.1713V12.6999H50.5469C51.6296 12.6999 52.5073 13.5489 52.5073 14.5963C52.5073 15.6437 51.6296 16.4927 50.5469 16.4927H47.2794V23.4462H50.5469C51.6296 23.4462 52.5073 24.2953 52.5073 25.3427C52.5073 26.39 51.6296 27.2391 50.5469 27.2391H47.2794V34.1926H50.5469C51.6296 34.1926 52.5073 35.0416 52.5073 36.089C52.5073 37.1364 51.6296 37.9854 50.5469 37.9854H47.2794V40.514C47.2794 43.3069 44.9388 45.5711 42.0515 45.5711H39.4375V48.7318C39.4375 49.7791 38.5598 50.6282 37.477 50.6282C36.3943 50.6282 35.5166 49.7791 35.5166 48.7318V45.5711H28.3282V48.7318C28.3282 49.7791 27.4504 50.6282 26.3677 50.6282C25.2849 50.6282 24.4072 49.7791 24.4072 48.7318V45.5711H17.2188V48.7318C17.2188 49.7791 16.3411 50.6282 15.2583 50.6282C14.1756 50.6282 13.2979 49.7791 13.2979 48.7318V45.5711H10.6839C7.79658 45.5711 5.45596 43.3069 5.45596 40.514V37.9854H2.1885C1.10576 37.9854 0.228027 37.1364 0.228027 36.089C0.228027 35.0416 1.10576 34.1926 2.1885 34.1926H5.45596V27.2391H2.1885C1.10576 27.2391 0.228027 26.39 0.228027 25.3427C0.228027 24.2953 1.10576 23.4462 2.1885 23.4462H5.45596V16.4927H2.1885C1.10576 16.4927 0.228027 15.6437 0.228027 14.5963C0.228027 13.5489 1.10576 12.6999 2.1885 12.6999H5.45596V10.1713C5.45596 7.37838 7.79658 5.11423 10.6839 5.11423H13.2979V1.95354C13.2979 0.906183 14.1756 0.0571289 15.2583 0.0571289ZM9.37691 10.1713C9.37691 9.4731 9.96206 8.90706 10.6839 8.90706H42.0515C42.7733 8.90706 43.3585 9.4731 43.3585 10.1713V40.514C43.3585 41.2122 42.7733 41.7782 42.0515 41.7782H10.6839C9.96206 41.7782 9.37691 41.2122 9.37691 40.514V10.1713Z" fill="#FF1C20"/>
</svg>
