<svg width="51" height="51" viewBox="0 0 51 51" fill="none" xmlns="http://www.w3.org/2000/svg">
<path fill-rule="evenodd" clip-rule="evenodd" d="M25.363 26.82C28.8565 26.82 31.6886 24.0612 31.6886 20.658C31.6886 17.2549 28.8565 14.4961 25.363 14.4961C21.8695 14.4961 19.0374 17.2549 19.0374 20.658C19.0374 24.0612 21.8695 26.82 25.363 26.82ZM25.363 30.5172C30.9527 30.5172 35.484 26.1031 35.484 20.658C35.484 15.213 30.9527 10.7989 25.363 10.7989C19.7733 10.7989 15.242 15.213 15.242 20.658C15.242 26.1031 19.7733 30.5172 25.363 30.5172Z" fill="#FF1C20"/>
<path fill-rule="evenodd" clip-rule="evenodd" d="M30.4235 36.6792H20.3025C15.4116 36.6792 11.4467 40.5415 11.4467 45.306C11.4467 45.9866 12.0131 46.5384 12.7118 46.5384H38.0142C38.7129 46.5384 39.2794 45.9866 39.2794 45.306C39.2794 40.5415 35.3144 36.6792 30.4235 36.6792ZM20.3025 32.982C13.3154 32.982 7.65128 38.4996 7.65128 45.306C7.65128 48.0285 9.91694 50.2355 12.7118 50.2355H38.0142C40.8091 50.2355 43.0747 48.0285 43.0747 45.306C43.0747 38.4996 37.4106 32.982 30.4235 32.982H20.3025Z" fill="#FF1C20"/>
<path fill-rule="evenodd" clip-rule="evenodd" d="M8.99315 1.48114C9.73424 2.20306 9.73424 3.37352 8.99315 4.09545L3.3001 9.64123C2.559 10.3632 1.35746 10.3632 0.616366 9.64123C-0.124726 8.91931 -0.124726 7.74884 0.616366 7.02692L6.30942 1.48114C7.05051 0.759217 8.25206 0.759217 8.99315 1.48114Z" fill="#FF1C20"/>
<path fill-rule="evenodd" clip-rule="evenodd" d="M19.1141 1.48114C19.8552 2.20306 19.8552 3.37352 19.1141 4.09545L3.3001 19.5004C2.559 20.2223 1.35746 20.2223 0.616366 19.5004C-0.124726 18.7785 -0.124726 17.608 0.616366 16.8861L16.4304 1.48114C17.1715 0.759217 18.373 0.759217 19.1141 1.48114Z" fill="#FF1C20"/>
<path fill-rule="evenodd" clip-rule="evenodd" d="M10.8902 19.3521C11.6313 20.074 11.6313 21.2445 10.8902 21.9664L3.3001 29.3602C2.559 30.0821 1.35746 30.0821 0.616366 29.3602C-0.124726 28.6383 -0.124726 27.4678 0.616366 26.7459L8.20648 19.3521C8.94758 18.6302 10.1491 18.6302 10.8902 19.3521Z" fill="#FF1C20"/>
<path fill-rule="evenodd" clip-rule="evenodd" d="M24.0212 6.56084C23.2801 5.83892 23.2801 4.66845 24.0212 3.94653L26.5446 1.48842C27.2857 0.766499 28.4872 0.766499 29.2283 1.48842C29.9694 2.21034 29.9694 3.38081 29.2283 4.10273L26.7049 6.56084C25.9638 7.28276 24.7623 7.28276 24.0212 6.56084Z" fill="#FF1C20"/>
<path fill-rule="evenodd" clip-rule="evenodd" d="M13.0449 27.1111C13.786 27.8331 13.786 29.0035 13.0449 29.7254L3.3001 39.2181C2.559 39.9401 1.35746 39.9401 0.616366 39.2181C-0.124726 38.4962 -0.124726 37.3258 0.616366 36.6038L10.3611 27.1111C11.1022 26.3892 12.3038 26.3892 13.0449 27.1111Z" fill="#FF1C20"/>
<path fill-rule="evenodd" clip-rule="evenodd" d="M31.9837 8.66277C31.2427 7.94085 31.2427 6.77039 31.9837 6.04847L36.6724 1.48114C37.4135 0.759217 38.615 0.759217 39.3561 1.48114C40.0972 2.20306 40.0972 3.37352 39.3561 4.09545L34.6675 8.66277C33.9264 9.3847 32.7248 9.3847 31.9837 8.66277Z" fill="#FF1C20"/>
<path fill-rule="evenodd" clip-rule="evenodd" d="M43.6664 37.9514C42.9253 37.2295 42.9253 36.0591 43.6664 35.3371L47.4259 31.6748C48.167 30.9529 49.3685 30.9529 50.1096 31.6749C50.8507 32.3968 50.8507 33.5672 50.1096 34.2892L46.3501 37.9514C45.609 38.6734 44.4075 38.6734 43.6664 37.9514Z" fill="#FF1C20"/>
<path fill-rule="evenodd" clip-rule="evenodd" d="M38.7408 32.8907C37.9998 32.1688 37.9998 30.9983 38.7408 30.2764L47.4259 21.816C48.167 21.0941 49.3685 21.0941 50.1096 21.816C50.8507 22.5379 50.8507 23.7084 50.1096 24.4303L41.4246 32.8907C40.6835 33.6126 39.4819 33.6126 38.7408 32.8907Z" fill="#FF1C20"/>
<path fill-rule="evenodd" clip-rule="evenodd" d="M39.8376 21.9628C39.0965 21.2409 39.0965 20.0704 39.8376 19.3485L47.4259 11.9565C48.167 11.2346 49.3685 11.2346 50.1096 11.9565C50.8507 12.6784 50.8507 13.8489 50.1096 14.5708L42.5214 21.9628C41.7803 22.6847 40.5787 22.6847 39.8376 21.9628Z" fill="#FF1C20"/>
<path fill-rule="evenodd" clip-rule="evenodd" d="M50.1096 1.48114C50.8507 2.20306 50.8507 3.37352 50.1096 4.09545L40.1313 13.8156C39.3903 14.5375 38.1887 14.5375 37.4476 13.8156C36.7065 13.0937 36.7065 11.9232 37.4476 11.2013L47.4259 1.48114C48.167 0.759217 49.3685 0.759217 50.1096 1.48114Z" fill="#FF1C20"/>
</svg>
