<svg width="52" height="50" viewBox="0 0 52 50" fill="none" xmlns="http://www.w3.org/2000/svg">
<path d="M2.07608 0.0131836C1.01026 0.0131836 0.14624 0.852314 0.14624 1.88743V8.13493C0.14624 9.17005 1.01026 10.0092 2.07608 10.0092C3.1419 10.0092 4.00592 9.17005 4.00592 8.13493V3.76168H8.50889C9.57471 3.76168 10.4387 2.92255 10.4387 1.88743C10.4387 0.852314 9.57471 0.0131836 8.50889 0.0131836H2.07608Z" fill="#FF1C20"/>
<path d="M0.14624 41.8714V48.1189C0.14624 48.616 0.349563 49.0927 0.711478 49.4442C1.07339 49.7957 1.56426 49.9932 2.07608 49.9932H8.50889C9.57471 49.9932 10.4387 49.1541 10.4387 48.1189C10.4387 47.0838 9.57471 46.2447 8.50889 46.2447H4.00592L4.00592 41.8714C4.00592 40.8363 3.1419 39.9972 2.07608 39.9972C1.01026 39.9972 0.14624 40.8363 0.14624 41.8714Z" fill="#FF1C20"/>
<path d="M41.3162 48.1189C41.3162 49.1541 42.1802 49.9932 43.246 49.9932H49.6788C50.1907 49.9932 50.6815 49.7957 51.0435 49.4442C51.4054 49.0927 51.6087 48.616 51.6087 48.1189V41.8714C51.6087 40.8363 50.7447 39.9972 49.6788 39.9972C48.613 39.9972 47.749 40.8363 47.749 41.8714V46.2447H43.246C42.1802 46.2447 41.3162 47.0838 41.3162 48.1189Z" fill="#FF1C20"/>
<path d="M51.6087 8.13493V1.88743C51.6087 0.852314 50.7447 0.0131836 49.6788 0.0131836H43.246C42.1802 0.0131836 41.3162 0.852316 41.3162 1.88743C41.3162 2.92256 42.1802 3.76169 43.246 3.76169L47.749 3.76168V8.13493C47.749 9.17005 48.613 10.0092 49.6788 10.0092C50.7447 10.0092 51.6087 9.17005 51.6087 8.13493Z" fill="#FF1C20"/>
<path fill-rule="evenodd" clip-rule="evenodd" d="M33.5968 25.0032C33.5968 29.1437 30.1408 32.5002 25.8775 32.5002C21.6142 32.5002 18.1581 29.1437 18.1581 25.0032C18.1581 20.8627 21.6142 17.5062 25.8775 17.5062C30.1408 17.5062 33.5968 20.8627 33.5968 25.0032ZM29.7371 25.0032C29.7371 27.0734 28.0091 28.7517 25.8775 28.7517C23.7458 28.7517 22.0178 27.0734 22.0178 25.0032C22.0178 22.9329 23.7458 21.2547 25.8775 21.2547C28.0091 21.2547 29.7371 22.9329 29.7371 25.0032Z" fill="#FF1C20"/>
<path fill-rule="evenodd" clip-rule="evenodd" d="M4.54795 27.0649C3.69961 25.8139 3.69961 24.1925 4.54795 22.9414C7.31834 18.856 14.6145 10.0092 25.8772 10.0092C37.1398 10.0092 44.436 18.856 47.2064 22.9414C48.0547 24.1925 48.0547 25.8139 47.2064 27.0649C44.436 31.1504 37.1398 39.9972 25.8772 39.9972C14.6145 39.9972 7.31834 31.1504 4.54795 27.0649ZM43.9829 25.0032C41.2982 28.9623 35.0106 36.2487 25.8772 36.2487C16.7438 36.2487 10.4561 28.9623 7.77138 25.0032C10.4561 21.0441 16.7437 13.7577 25.8772 13.7577C35.0106 13.7577 41.2982 21.0441 43.9829 25.0032Z" fill="#FF1C20"/>
</svg>
