<svg width="10" height="13" viewBox="0 0 10 13" fill="none" xmlns="http://www.w3.org/2000/svg">
<path fill-rule="evenodd" clip-rule="evenodd" d="M7.13883 0.383421C7.31728 0.493947 7.39951 0.722347 7.33639 0.93211L6.20463 4.69314H9.25816C9.43195 4.69314 9.58935 4.80274 9.65948 4.97258C9.72962 5.14243 9.69926 5.34049 9.58208 5.47758L3.44127 12.6617C3.30219 12.8244 3.07576 12.8616 2.89732 12.7511C2.71888 12.6406 2.63664 12.4122 2.69976 12.2024L3.83152 8.44137H0.777993C0.604204 8.44137 0.446805 8.33177 0.376669 8.16192C0.306534 7.99207 0.336892 7.79401 0.454072 7.65692L6.59488 0.472821C6.73396 0.310109 6.96039 0.272895 7.13883 0.383421ZM1.77244 7.50431H4.43324C4.5734 7.50431 4.70512 7.57586 4.78769 7.69684C4.87025 7.81783 4.89372 7.97368 4.85082 8.11621L4.1511 10.4415L8.26371 5.6302H5.60291C5.46275 5.6302 5.33103 5.55864 5.24846 5.43766C5.1659 5.31668 5.14244 5.16083 5.18533 5.01829L5.88505 2.69298L1.77244 7.50431Z" fill="#DFDEDE"/>
</svg>
