<svg width="56" height="54" viewBox="0 0 56 54" fill="none" xmlns="http://www.w3.org/2000/svg">
<path d="M0.228027 2.01956C0.228027 0.963783 1.10576 0.10791 2.1885 0.10791H8.72342C9.80616 0.10791 10.6839 0.963783 10.6839 2.01956C10.6839 3.07533 9.80616 3.9312 8.72342 3.9312H4.14898V8.39171C4.14898 9.44748 3.27124 10.3034 2.1885 10.3034C1.10576 10.3034 0.228027 9.44748 0.228027 8.39171V2.01956Z" fill="#FF1C20"/>
<path d="M0.228027 49.1735V42.8013C0.228027 41.7456 1.10576 40.8897 2.1885 40.8897C3.27124 40.8897 4.14898 41.7456 4.14898 42.8013L4.14898 47.2619H8.72342C9.80616 47.2619 10.6839 48.1177 10.6839 49.1735C10.6839 50.2293 9.80616 51.0852 8.72342 51.0852H2.1885C1.66855 51.0852 1.1699 50.8837 0.802238 50.5252C0.434577 50.1667 0.228027 49.6805 0.228027 49.1735Z" fill="#FF1C20"/>
<path d="M52.5073 2.01956V8.39171C52.5073 9.44748 51.6296 10.3034 50.5469 10.3034C49.4641 10.3034 48.5864 9.44748 48.5864 8.39171V3.9312L44.012 3.9312C42.9292 3.9312 42.0515 3.07533 42.0515 2.01956C42.0515 0.963785 42.9292 0.10791 44.012 0.10791L50.5469 0.10791C51.6296 0.10791 52.5073 0.963783 52.5073 2.01956Z" fill="#FF1C20"/>
<path d="M26.3677 12.8522C27.4504 12.8522 28.3282 13.7081 28.3282 14.7639V23.6849H36.0617C33.4428 24.4155 31.0826 25.7436 29.1461 27.5082H28.3282V28.3057C26.5185 30.194 25.1565 32.4954 24.4072 35.0491V27.5082H15.2583C14.1756 27.5082 13.2979 26.6523 13.2979 25.5965C13.2979 24.5408 14.1756 23.6849 15.2583 23.6849H24.4072V14.7639C24.4072 13.7081 25.2849 12.8522 26.3677 12.8522Z" fill="#FF1C20"/>
<path fill-rule="evenodd" clip-rule="evenodd" d="M55.1213 39.6153C55.1213 47.3576 48.6846 53.634 40.7445 53.634C32.8044 53.634 26.3677 47.3576 26.3677 39.6153C26.3677 31.8729 32.8044 25.5965 40.7445 25.5965C48.6846 25.5965 55.1213 31.8729 55.1213 39.6153ZM48.2036 34.8908C48.714 35.3885 48.714 36.1954 48.2036 36.6931L39.0547 45.6142C38.8096 45.8532 38.4772 45.9874 38.1305 45.9874C37.7839 45.9874 37.4515 45.8532 37.2064 45.6142L31.9784 40.5164C31.468 40.0187 31.468 39.2118 31.9784 38.7141C32.4888 38.2164 33.3164 38.2164 33.8268 38.7141L38.1305 42.9107L46.3552 34.8908C46.8656 34.3931 47.6932 34.3931 48.2036 34.8908Z" fill="#FF1C20"/>
</svg>
