<svg width="39" height="39" viewBox="0 0 39 39" fill="none" xmlns="http://www.w3.org/2000/svg">
<path fill-rule="evenodd" clip-rule="evenodd" d="M4.91667 0.557404C2.61548 0.557404 0.75 2.42288 0.75 4.72407V33.8907C0.75 36.1919 2.61548 38.0574 4.91667 38.0574H34.0833C36.3845 38.0574 38.25 36.1919 38.25 33.8907V4.72407C38.25 2.42288 36.3845 0.557404 34.0833 0.557404H4.91667ZM23.6667 3.6824H15.3333V12.0157L23.6667 12.0157V3.6824ZM23.6667 15.1407L15.3333 15.1407V23.4741L23.6667 23.4741V15.1407ZM12.2083 12.0157V3.6824H4.91667C4.34137 3.6824 3.875 4.14877 3.875 4.72407V12.0157H12.2083ZM3.875 15.1407H12.2083V23.4741H3.875V15.1407ZM26.7917 15.1407H35.125V23.4741H26.7917V15.1407ZM35.125 12.0157H26.7917V3.6824H34.0833C34.6586 3.6824 35.125 4.14877 35.125 4.72407V12.0157ZM12.2083 26.5991H3.875V33.8907C3.875 34.466 4.34137 34.9324 4.91667 34.9324H12.2083V26.5991ZM23.6667 26.5991L15.3333 26.5991V34.9324H23.6667V26.5991ZM26.7917 34.9324V26.5991H35.125V33.8907C35.125 34.466 34.6586 34.9324 34.0833 34.9324H26.7917Z" fill="#F5F5F5"/>
</svg>
