<svg width="40" height="41" viewBox="0 0 40 41" fill="none" xmlns="http://www.w3.org/2000/svg">
<g clip-path="url(#clip0_3_54)">
<path d="M20 4.10156C25.3438 4.10156 25.9766 4.125 28.0781 4.21875C30.0313 4.30469 31.0859 4.63281 31.7891 4.90625C32.7188 5.26563 33.3906 5.70313 34.0859 6.39844C34.7891 7.10156 35.2188 7.76563 35.5781 8.69531C35.8516 9.39844 36.1797 10.4609 36.2656 12.4062C36.3594 14.5156 36.3828 15.1484 36.3828 20.4844C36.3828 25.8281 36.3594 26.4609 36.2656 28.5625C36.1797 30.5156 35.8516 31.5703 35.5781 32.2734C35.2188 33.2031 34.7813 33.875 34.0859 34.5703C33.3828 35.2734 32.7188 35.7031 31.7891 36.0625C31.0859 36.3359 30.0234 36.6641 28.0781 36.75C25.9688 36.8438 25.3359 36.8672 20 36.8672C14.6563 36.8672 14.0234 36.8438 11.9219 36.75C9.96875 36.6641 8.91406 36.3359 8.21094 36.0625C7.28125 35.7031 6.60938 35.2656 5.91406 34.5703C5.21094 33.8672 4.78125 33.2031 4.42188 32.2734C4.14844 31.5703 3.82031 30.5078 3.73438 28.5625C3.64063 26.4531 3.61719 25.8203 3.61719 20.4844C3.61719 15.1406 3.64063 14.5078 3.73438 12.4062C3.82031 10.4531 4.14844 9.39844 4.42188 8.69531C4.78125 7.76563 5.21875 7.09375 5.91406 6.39844C6.61719 5.69531 7.28125 5.26563 8.21094 4.90625C8.91406 4.63281 9.97656 4.30469 11.9219 4.21875C14.0234 4.125 14.6563 4.10156 20 4.10156ZM20 0.5C14.5703 0.5 13.8906 0.523437 11.7578 0.617188C9.63281 0.710938 8.17188 1.05469 6.90625 1.54688C5.58594 2.0625 4.46875 2.74219 3.35938 3.85938C2.24219 4.96875 1.5625 6.08594 1.04688 7.39844C0.554688 8.67188 0.210938 10.125 0.117188 12.25C0.0234375 14.3906 0 15.0703 0 20.5C0 25.9297 0.0234375 26.6094 0.117188 28.7422C0.210938 30.8672 0.554688 32.3281 1.04688 33.5938C1.5625 34.9141 2.24219 36.0312 3.35938 37.1406C4.46875 38.25 5.58594 38.9375 6.89844 39.4453C8.17188 39.9375 9.625 40.2812 11.75 40.375C13.8828 40.4688 14.5625 40.4922 19.9922 40.4922C25.4219 40.4922 26.1016 40.4688 28.2344 40.375C30.3594 40.2812 31.8203 39.9375 33.0859 39.4453C34.3984 38.9375 35.5156 38.25 36.625 37.1406C37.7344 36.0312 38.4219 34.9141 38.9297 33.6016C39.4219 32.3281 39.7656 30.875 39.8594 28.75C39.9531 26.6172 39.9766 25.9375 39.9766 20.5078C39.9766 15.0781 39.9531 14.3984 39.8594 12.2656C39.7656 10.1406 39.4219 8.67969 38.9297 7.41406C38.4375 6.08594 37.7578 4.96875 36.6406 3.85938C35.5313 2.75 34.4141 2.0625 33.1016 1.55469C31.8281 1.0625 30.375 0.71875 28.25 0.625C26.1094 0.523438 25.4297 0.5 20 0.5Z" fill="#DFDEDE"/>
<path d="M20 10.2266C14.3281 10.2266 9.72656 14.8281 9.72656 20.5C9.72656 26.1719 14.3281 30.7734 20 30.7734C25.6719 30.7734 30.2734 26.1719 30.2734 20.5C30.2734 14.8281 25.6719 10.2266 20 10.2266ZM20 27.1641C16.3203 27.1641 13.3359 24.1797 13.3359 20.5C13.3359 16.8203 16.3203 13.8359 20 13.8359C23.6797 13.8359 26.6641 16.8203 26.6641 20.5C26.6641 24.1797 23.6797 27.1641 20 27.1641Z" fill="#DFDEDE"/>
<path d="M33.0781 9.82032C33.0781 11.1484 32 12.2188 30.6797 12.2188C29.3516 12.2188 28.2812 11.1406 28.2812 9.82032C28.2812 8.49219 29.3594 7.42188 30.6797 7.42188C32 7.42188 33.0781 8.5 33.0781 9.82032Z" fill="#DFDEDE"/>
</g>
<defs>
<clipPath id="clip0_3_54">
<rect width="40" height="40" fill="white" transform="translate(0 0.5)"/>
</clipPath>
</defs>
</svg>
