<svg width="49" height="49" viewBox="0 0 49 49" fill="none" xmlns="http://www.w3.org/2000/svg">
<path fill-rule="evenodd" clip-rule="evenodd" d="M40.75 15.0208C40.75 18.7603 37.7186 21.7917 33.9792 21.7917C30.2397 21.7917 27.2083 18.7603 27.2083 15.0208C27.2083 11.2814 30.2397 8.25 33.9792 8.25C37.7186 8.25 40.75 11.2814 40.75 15.0208ZM36.6875 15.0208C36.6875 16.5166 35.4749 17.7292 33.9792 17.7292C32.4834 17.7292 31.2708 16.5166 31.2708 15.0208C31.2708 13.5251 32.4834 12.3125 33.9792 12.3125C35.4749 12.3125 36.6875 13.5251 36.6875 15.0208Z" fill="#FF1C20"/>
<path fill-rule="evenodd" clip-rule="evenodd" d="M0.125 5.54167V43.4583C0.125 46.4499 2.55012 48.875 5.54167 48.875H43.4583C46.4499 48.875 48.875 46.4499 48.875 43.4583V5.54167C48.875 2.55012 46.4499 0.125 43.4583 0.125H5.54167C2.55012 0.125 0.125 2.55012 0.125 5.54167ZM43.4583 4.1875H5.54167C4.79378 4.1875 4.1875 4.79378 4.1875 5.54167V31.1065L14.9387 20.3554C15.7319 19.5621 17.0181 19.5621 17.8113 20.3554L29.9167 32.4607L36.6054 25.772C37.3986 24.9788 38.6847 24.9788 39.478 25.772L44.8125 31.1065V5.54167C44.8125 4.79378 44.2062 4.1875 43.4583 4.1875ZM16.375 24.6643L4.1875 36.8518V43.4583C4.1875 44.2062 4.79378 44.8125 5.54167 44.8125H43.4583C44.2062 44.8125 44.8125 44.2062 44.8125 43.4583V36.8518L38.0417 30.081L31.353 36.7696C30.5597 37.5629 29.2736 37.5629 28.4804 36.7696L16.375 24.6643Z" fill="#FF1C20"/>
</svg>
