<svg width="37" height="38" viewBox="0 0 37 38" fill="none" xmlns="http://www.w3.org/2000/svg">
<path d="M17.4477 16.7667C17.7813 16.6285 18.1389 16.5574 18.5001 16.5574C19.2595 16.5574 19.8751 15.9418 19.8751 15.1824C19.8751 14.423 19.2595 13.8074 18.5001 13.8074C17.7778 13.8074 17.0626 13.9497 16.3953 14.2261C15.728 14.5025 15.1217 14.9076 14.611 15.4183C14.1003 15.929 13.6951 16.5354 13.4187 17.2026C13.1423 17.8699 13.0001 18.5851 13.0001 19.3074C13.0001 20.0668 13.6157 20.6824 14.3751 20.6824C15.1345 20.6824 15.7501 20.0668 15.7501 19.3074C15.7501 18.9463 15.8212 18.5887 15.9594 18.255C16.0976 17.9214 16.3002 17.6182 16.5555 17.3629C16.8109 17.1075 17.1141 16.9049 17.4477 16.7667Z" fill="#F5F5F5"/>
<path fill-rule="evenodd" clip-rule="evenodd" d="M18.5001 30.3074C24.5752 30.3074 29.5001 25.3825 29.5001 19.3074C29.5001 13.2323 24.5752 8.3074 18.5001 8.3074C12.4249 8.3074 7.50008 13.2323 7.50008 19.3074C7.50008 25.3825 12.4249 30.3074 18.5001 30.3074ZM18.5001 27.5574C23.0564 27.5574 26.7501 23.8637 26.7501 19.3074C26.7501 14.7511 23.0564 11.0574 18.5001 11.0574C13.9437 11.0574 10.2501 14.7511 10.2501 19.3074C10.2501 23.8637 13.9437 27.5574 18.5001 27.5574Z" fill="#F5F5F5"/>
<path fill-rule="evenodd" clip-rule="evenodd" d="M18.5001 37.6407C28.6253 37.6407 36.8334 29.4326 36.8334 19.3074C36.8334 9.18218 28.6253 0.974068 18.5001 0.974068C8.37486 0.974068 0.166748 9.18218 0.166748 19.3074C0.166748 29.4326 8.37486 37.6407 18.5001 37.6407ZM18.5001 34.8907C27.1065 34.8907 34.0834 27.9138 34.0834 19.3074C34.0834 10.701 27.1065 3.72407 18.5001 3.72407C9.89364 3.72407 2.91675 10.701 2.91675 19.3074C2.91675 27.9138 9.89364 34.8907 18.5001 34.8907Z" fill="#F5F5F5"/>
</svg>
