<svg width="51" height="51" viewBox="0 0 51 51" fill="none" xmlns="http://www.w3.org/2000/svg">
<path fill-rule="evenodd" clip-rule="evenodd" d="M25.5 17C31.368 17 36.125 21.757 36.125 27.625C36.125 33.493 31.368 38.25 25.5 38.25C19.632 38.25 14.875 33.493 14.875 27.625C14.875 21.757 19.632 17 25.5 17ZM25.5 20.1875C29.6076 20.1875 32.9375 23.5174 32.9375 27.625C32.9375 31.7326 29.6076 35.0625 25.5 35.0625C21.3924 35.0625 18.0625 31.7326 18.0625 27.625C18.0625 23.5174 21.3924 20.1875 25.5 20.1875Z" fill="white"/>
<path fill-rule="evenodd" clip-rule="evenodd" d="M32.5058 7.32126L36.125 12.75H42.5C44.8472 12.75 46.75 14.6528 46.75 17V40.375C46.75 42.7222 44.8472 44.625 42.5 44.625H8.5C6.15279 44.625 4.25 42.7222 4.25 40.375V17C4.25 14.6528 6.15279 12.75 8.5 12.75H14.875L18.4942 7.32126C18.8883 6.73009 19.5518 6.375 20.2623 6.375H30.7377C31.4482 6.375 32.1117 6.73009 32.5058 7.32126ZM14.875 15.9375C15.9408 15.9375 16.936 15.4049 17.5272 14.5181L20.8309 9.5625H30.1691L33.4728 14.5181C34.064 15.4049 35.0592 15.9375 36.125 15.9375H42.5C43.0868 15.9375 43.5625 16.4132 43.5625 17V40.375C43.5625 40.9618 43.0868 41.4375 42.5 41.4375H8.5C7.9132 41.4375 7.4375 40.9618 7.4375 40.375V17C7.4375 16.4132 7.9132 15.9375 8.5 15.9375H14.875Z" fill="white"/>
</svg>
