<svg width="41" height="39" viewBox="0 0 41 39" fill="none" xmlns="http://www.w3.org/2000/svg">
<path d="M2.02501 25.4548L0.0258789 25.4585L0.0458715 38.2932H13.7599V36.4256H2.04101L2.02501 25.4548Z" fill="#F5F5F5"/>
<path d="M38.9751 36.4254H27.1042V38.2931H40.9742V25.4565H38.9751V36.4254Z" fill="#F5F5F5"/>
<path d="M38.9752 12.932H40.9744V0.00202942L27.1943 0.00202942V1.86972L38.9752 1.86972V12.932Z" fill="#F5F5F5"/>
<path d="M0.026123 12.9302L2.02526 12.9339L2.04125 1.86972L13.8042 1.86972V0.00202942L0.0461156 0.00202942L0.026123 12.9302Z" fill="#F5F5F5"/>
<path d="M20.4991 20.0801C21.0511 20.0801 21.4986 19.6624 21.4986 19.1473C21.4986 18.6321 21.0511 18.2145 20.4991 18.2145C19.947 18.2145 19.4995 18.6321 19.4995 19.1473C19.4995 19.6624 19.947 20.0801 20.4991 20.0801Z" fill="#F5F5F5"/>
<path d="M20.4991 8.64303C19.9473 8.64303 19.4995 9.06092 19.4995 9.57581C19.4995 10.0907 19.9473 10.5086 20.4991 10.5086C21.0508 10.5086 21.4986 10.0907 21.4986 9.57581C21.4986 9.06092 21.0508 8.64303 20.4991 8.64303Z" fill="#F5F5F5"/>
<path d="M20.4991 1.86557C21.0511 1.86557 21.4986 1.44795 21.4986 0.932784C21.4986 0.417622 21.0511 0 20.4991 0C19.947 0 19.4995 0.417622 19.4995 0.932784C19.4995 1.44795 19.947 1.86557 20.4991 1.86557Z" fill="#F5F5F5"/>
<path d="M20.4991 38.3074C21.0511 38.3074 21.4986 37.8898 21.4986 37.3746C21.4986 36.8595 21.0511 36.4418 20.4991 36.4418C19.947 36.4418 19.4995 36.8595 19.4995 37.3746C19.4995 37.8898 19.947 38.3074 20.4991 38.3074Z" fill="#F5F5F5"/>
<path d="M20.4991 27.8009C19.9473 27.8009 19.4995 28.2188 19.4995 28.7337C19.4995 29.2486 19.9473 29.6665 20.4991 29.6665C21.0508 29.6665 21.4986 29.2486 21.4986 28.7337C21.4986 28.2188 21.0508 27.8009 20.4991 27.8009Z" fill="#F5F5F5"/>
<path d="M29.7529 19.1529C29.7529 19.6678 30.2007 20.0857 30.7525 20.0857C31.3043 20.0857 31.7521 19.6678 31.7521 19.1529C31.7521 18.638 31.3043 18.2201 30.7525 18.2201C30.2007 18.2201 29.7529 18.638 29.7529 19.1529Z" fill="#F5F5F5"/>
<path d="M40.0005 18.2221C39.4488 18.2221 39.001 18.64 39.001 19.1549C39.001 19.6698 39.4488 20.0877 40.0005 20.0877C40.5523 20.0877 41.0001 19.6698 41.0001 19.1549C41.0001 18.64 40.5523 18.2221 40.0005 18.2221Z" fill="#F5F5F5"/>
<path d="M0.999567 20.0857C1.55133 20.0857 1.99913 19.6678 1.99913 19.1529C1.99913 18.638 1.55133 18.2201 0.999567 18.2201C0.447806 18.2201 0 18.638 0 19.1529C0 19.6678 0.447806 20.0857 0.999567 20.0857Z" fill="#F5F5F5"/>
<path d="M11.2472 19.1529C11.2472 18.638 10.7994 18.2201 10.2476 18.2201C9.69585 18.2201 9.24805 18.638 9.24805 19.1529C9.24805 19.6678 9.69585 20.0857 10.2476 20.0857C10.7994 20.0857 11.2472 19.6678 11.2472 19.1529Z" fill="#F5F5F5"/>
</svg>
