<svg width="55" height="55" viewBox="0 0 55 55" fill="none" xmlns="http://www.w3.org/2000/svg">
<path d="M2.15625 19.0833C1.03442 19.0833 0.125 18.1739 0.125 17.0521V5.54167C0.125 2.55012 2.55013 0.125 5.54167 0.125H17.0521C18.1739 0.125 19.0833 1.03442 19.0833 2.15625C19.0833 3.27808 18.1739 4.1875 17.0521 4.1875L5.54167 4.1875C4.79378 4.1875 4.1875 4.79378 4.1875 5.54167L4.1875 17.0521C4.1875 18.1739 3.27808 19.0833 2.15625 19.0833Z" fill="#FF1C20"/>
<path d="M31.9479 0.125C30.8261 0.125 29.9167 1.03442 29.9167 2.15625C29.9167 3.27808 30.8261 4.1875 31.9479 4.1875H43.4583C44.2062 4.1875 44.8125 4.79378 44.8125 5.54167V17.0521C44.8125 18.1739 45.7219 19.0833 46.8438 19.0833C47.9656 19.0833 48.875 18.1739 48.875 17.0521V5.54167C48.875 2.55013 46.4499 0.125 43.4583 0.125H31.9479Z" fill="#FF1C20"/>
<path d="M17.0521 48.875C18.1739 48.875 19.0833 47.9656 19.0833 46.8438C19.0833 45.7219 18.1739 44.8125 17.0521 44.8125H5.54167C4.79378 44.8125 4.1875 44.2062 4.1875 43.4583V31.9479C4.1875 30.8261 3.27808 29.9167 2.15625 29.9167C1.03442 29.9167 0.125 30.8261 0.125 31.9479V43.4583C0.125 46.4499 2.55012 48.875 5.54167 48.875H17.0521Z" fill="#FF1C20"/>
<path d="M39.3958 44.8125C41.6395 44.8125 43.4583 42.9937 43.4583 40.75C43.4583 38.5063 41.6395 36.6875 39.3958 36.6875C37.1522 36.6875 35.3333 38.5063 35.3333 40.75C35.3333 42.9937 37.1522 44.8125 39.3958 44.8125Z" fill="#FF1C20"/>
<path fill-rule="evenodd" clip-rule="evenodd" d="M47.5208 29.9167H48.875C51.8665 29.9167 54.2917 32.3418 54.2917 35.3333V48.875C54.2917 51.8666 51.8665 54.2917 48.875 54.2917H29.9167C26.9251 54.2917 24.5 51.8666 24.5 48.875V35.3333C24.5 32.3418 26.9251 29.9167 29.9167 29.9167H31.2708L32.3711 28.2662C33.3757 26.7593 35.067 25.8542 36.8781 25.8542H41.9136C43.7247 25.8542 45.4159 26.7593 46.4205 28.2662L47.5208 29.9167ZM33.445 33.9792H29.9167C29.1688 33.9792 28.5625 34.5854 28.5625 35.3333V48.875C28.5625 49.6229 29.1688 50.2292 29.9167 50.2292H48.875C49.6229 50.2292 50.2292 49.6229 50.2292 48.875V35.3333C50.2292 34.5854 49.6229 33.9792 48.875 33.9792H45.3466L43.0403 30.5197C42.7892 30.1429 42.3664 29.9167 41.9136 29.9167H36.8781C36.4253 29.9167 36.0025 30.1429 35.7513 30.5197L33.445 33.9792Z" fill="#FF1C20"/>
</svg>
