<svg width="40" height="41" viewBox="0 0 40 41" fill="none" xmlns="http://www.w3.org/2000/svg">
<g clip-path="url(#clip0_3_56)">
<path fill-rule="evenodd" clip-rule="evenodd" d="M40 20.5C40 31.5457 31.0457 40.5 20 40.5C8.95431 40.5 0 31.5457 0 20.5C0 9.45431 8.95431 0.5 20 0.5C31.0457 0.5 40 9.45431 40 20.5ZM20.7167 15.2649C18.7714 16.074 14.8836 17.7487 9.05315 20.2889C8.10639 20.6654 7.61043 21.0337 7.56528 21.3938C7.48898 22.0025 8.25118 22.2422 9.28911 22.5685C9.4303 22.6129 9.57659 22.6589 9.72656 22.7077C10.7477 23.0396 12.1214 23.428 12.8355 23.4434C13.4832 23.4574 14.2062 23.1903 15.0044 22.6422C20.4519 18.965 23.264 17.1063 23.4405 17.0663C23.5651 17.038 23.7377 17.0025 23.8546 17.1064C23.9715 17.2104 23.9601 17.4072 23.9477 17.46C23.8722 17.7819 20.8802 20.5635 19.3319 22.003C18.8492 22.4517 18.5068 22.77 18.4368 22.8427C18.28 23.0056 18.1202 23.1596 17.9666 23.3077C17.0179 24.2222 16.3065 24.908 18.006 26.028C18.8227 26.5662 19.4763 27.0112 20.1283 27.4552C20.8403 27.9401 21.5505 28.4238 22.4694 29.0261C22.7035 29.1796 22.927 29.339 23.1448 29.4942C23.9735 30.085 24.7179 30.6157 25.6376 30.5311C26.1721 30.4819 26.7241 29.9794 27.0045 28.4806C27.667 24.9386 28.9694 17.2641 29.2704 14.1016C29.2967 13.8245 29.2636 13.47 29.2369 13.3143C29.2103 13.1586 29.1546 12.9368 28.9523 12.7727C28.7127 12.5782 28.3427 12.5372 28.1773 12.5401C27.425 12.5534 26.2709 12.9547 20.7167 15.2649Z" fill="#DFDEDE"/>
</g>
<defs>
<clipPath id="clip0_3_56">
<rect width="40" height="40" fill="white" transform="translate(0 0.5)"/>
</clipPath>
</defs>
</svg>
