<svg width="40" height="41" viewBox="0 0 40 41" fill="none" xmlns="http://www.w3.org/2000/svg">
<g clip-path="url(#clip0_3_55)">
<path fill-rule="evenodd" clip-rule="evenodd" d="M2.81177 3.31177C0 6.12355 0 10.649 0 19.7V21.3C0 30.351 0 34.8764 2.81177 37.6882C5.62355 40.5 10.149 40.5 19.2 40.5H20.8C29.851 40.5 34.3764 40.5 37.1882 37.6882C40 34.8764 40 30.351 40 21.3V19.7C40 10.649 40 6.12355 37.1882 3.31177C34.3764 0.5 29.851 0.5 20.8 0.5H19.2C10.149 0.5 5.62355 0.5 2.81177 3.31177ZM6.7501 12.6667C6.96677 23.0667 12.1667 29.3167 21.2834 29.3167H21.8002V23.3667C25.1502 23.7001 27.6833 26.1501 28.7 29.3167H33.4334C32.1334 24.5834 28.7166 21.9667 26.5833 20.9667C28.7166 19.7334 31.7166 16.7334 32.4332 12.6667H28.1332C27.1998 15.9667 24.4335 18.9667 21.8002 19.2501V12.6667H17.5V24.2001C14.8333 23.5334 11.4668 20.3001 11.3167 12.6667H6.7501Z" fill="#DFDEDE"/>
</g>
<defs>
<clipPath id="clip0_3_55">
<rect width="40" height="40" fill="white" transform="translate(0 0.5)"/>
</clipPath>
</defs>
</svg>
